<svg width="263" height="80" viewBox="0 0 263 80" fill="none" xmlns="http://www.w3.org/2000/svg">
<rect width="263" height="80" fill="#1DF659"/>
<path d="M39.648 48.36C43.992 48.36 46.584 45.6 47.352 42.72L44.712 41.856C44.136 43.776 42.504 45.6 39.648 45.6C36.744 45.6 34.008 43.488 34.008 39.504C34.008 35.376 36.816 33.336 39.624 33.336C42.48 33.336 44.064 34.992 44.568 37.056L47.28 36.144C46.512 33.168 43.944 30.624 39.624 30.624C35.208 30.624 31.056 33.96 31.056 39.504C31.056 45.048 35.064 48.36 39.648 48.36ZM49.9914 44.832C49.9914 46.68 51.5034 48.36 53.9514 48.36C55.8474 48.36 56.9994 47.4 57.5514 46.512C57.5514 47.448 57.6474 47.928 57.6714 48H60.2634C60.2394 47.88 60.1194 47.184 60.1194 46.128V40.32C60.1194 37.992 58.7514 35.952 55.1514 35.952C52.2714 35.952 50.4474 37.752 50.2314 39.768L52.7754 40.344C52.8954 39.168 53.7114 38.232 55.1754 38.232C56.7114 38.232 57.3834 39.024 57.3834 40.008C57.3834 40.416 57.1914 40.752 56.5194 40.848L53.5194 41.304C51.5274 41.592 49.9914 42.744 49.9914 44.832ZM54.4794 46.176C53.3754 46.176 52.7754 45.456 52.7754 44.664C52.7754 43.704 53.4714 43.224 54.3354 43.08L57.3834 42.624V43.152C57.3834 45.432 56.0394 46.176 54.4794 46.176ZM67.2289 48V30.624H64.4449V48H67.2289ZM76.8953 38.52C78.6713 38.52 79.4633 39.672 79.7273 40.704L82.2233 39.792C81.7433 37.92 80.0153 35.952 76.8713 35.952C73.5113 35.952 70.8953 38.544 70.8953 42.144C70.8953 45.696 73.5113 48.36 76.9433 48.36C80.0153 48.36 81.7673 46.368 82.3193 44.544L79.8713 43.656C79.6073 44.544 78.7673 45.816 76.9433 45.816C75.1913 45.816 73.6793 44.496 73.6793 42.144C73.6793 39.792 75.1913 38.52 76.8953 38.52ZM93.3791 46.704C93.3791 47.184 93.4271 47.736 93.4751 48H96.1391C96.0911 47.568 96.0191 46.824 96.0191 45.864V36.312H93.2351V43.224C93.2351 44.76 92.3951 45.84 90.7871 45.84C89.1071 45.84 88.4351 44.616 88.4351 43.176V36.312H85.6511V43.68C85.6511 46.272 87.2831 48.336 90.0671 48.336C91.4351 48.336 92.8031 47.76 93.3791 46.704ZM103.226 48V30.624H100.442V48H103.226ZM106.916 44.832C106.916 46.68 108.428 48.36 110.876 48.36C112.772 48.36 113.924 47.4 114.476 46.512C114.476 47.448 114.572 47.928 114.596 48H117.188C117.164 47.88 117.044 47.184 117.044 46.128V40.32C117.044 37.992 115.676 35.952 112.076 35.952C109.196 35.952 107.372 37.752 107.156 39.768L109.7 40.344C109.82 39.168 110.636 38.232 112.1 38.232C113.636 38.232 114.308 39.024 114.308 40.008C114.308 40.416 114.116 40.752 113.444 40.848L110.444 41.304C108.452 41.592 106.916 42.744 106.916 44.832ZM111.404 46.176C110.3 46.176 109.7 45.456 109.7 44.664C109.7 43.704 110.396 43.224 111.26 43.08L114.308 42.624V43.152C114.308 45.432 112.964 46.176 111.404 46.176ZM124.948 32.736H122.428V34.488C122.428 35.52 121.876 36.312 120.628 36.312H120.028V38.784H122.188V44.664C122.188 46.848 123.532 48.144 125.692 48.144C126.7 48.144 127.228 47.952 127.396 47.88V45.576C127.276 45.6 126.82 45.672 126.436 45.672C125.404 45.672 124.948 45.24 124.948 44.208V38.784H127.372V36.312H124.948V32.736ZM133.02 40.872C133.116 39.624 134.124 38.28 135.876 38.28C137.796 38.28 138.708 39.504 138.756 40.872H133.02ZM139.068 43.92C138.684 45.072 137.82 45.96 136.14 45.96C134.412 45.96 133.02 44.688 132.948 42.912H141.492C141.516 42.864 141.564 42.48 141.564 42.024C141.564 38.328 139.452 35.952 135.852 35.952C132.9 35.952 130.164 38.4 130.164 42.096C130.164 46.056 132.972 48.36 136.14 48.36C138.948 48.36 140.796 46.704 141.42 44.664L139.068 43.92ZM155.336 48V30.984H152.408V48H155.336ZM162.915 48V41.064C162.915 39.576 163.851 38.472 165.339 38.472C166.923 38.472 167.595 39.528 167.595 40.872V48H170.331V41.064C170.331 39.624 171.291 38.472 172.755 38.472C174.315 38.472 175.011 39.504 175.011 40.872V48H177.699V40.416C177.699 37.32 175.683 35.976 173.571 35.976C172.059 35.976 170.691 36.504 169.779 38.04C169.155 36.672 167.811 35.976 166.275 35.976C164.955 35.976 163.491 36.6 162.819 37.8V36.312H160.155V48H162.915ZM184.758 52.56V46.68C185.358 47.568 186.63 48.288 188.31 48.288C191.67 48.288 193.806 45.648 193.806 42.144C193.806 38.688 191.862 36.048 188.406 36.048C186.606 36.048 185.262 36.888 184.686 37.896V36.312H181.998V52.56H184.758ZM191.022 42.144C191.022 44.376 189.726 45.816 187.878 45.816C186.054 45.816 184.734 44.376 184.734 42.144C184.734 39.96 186.054 38.52 187.878 38.52C189.75 38.52 191.022 39.96 191.022 42.144ZM196.793 44.832C196.793 46.68 198.305 48.36 200.753 48.36C202.649 48.36 203.801 47.4 204.353 46.512C204.353 47.448 204.449 47.928 204.473 48H207.065C207.041 47.88 206.921 47.184 206.921 46.128V40.32C206.921 37.992 205.553 35.952 201.953 35.952C199.073 35.952 197.249 37.752 197.033 39.768L199.577 40.344C199.697 39.168 200.513 38.232 201.977 38.232C203.513 38.232 204.185 39.024 204.185 40.008C204.185 40.416 203.993 40.752 203.321 40.848L200.321 41.304C198.329 41.592 196.793 42.744 196.793 44.832ZM201.281 46.176C200.177 46.176 199.577 45.456 199.577 44.664C199.577 43.704 200.273 43.224 201.137 43.08L204.185 42.624V43.152C204.185 45.432 202.841 46.176 201.281 46.176ZM216.502 38.52C218.278 38.52 219.07 39.672 219.334 40.704L221.83 39.792C221.35 37.92 219.622 35.952 216.478 35.952C213.118 35.952 210.502 38.544 210.502 42.144C210.502 45.696 213.118 48.36 216.55 48.36C219.622 48.36 221.374 46.368 221.926 44.544L219.478 43.656C219.214 44.544 218.374 45.816 216.55 45.816C214.798 45.816 213.286 44.496 213.286 42.144C213.286 39.792 214.798 38.52 216.502 38.52ZM229.05 32.736H226.53V34.488C226.53 35.52 225.978 36.312 224.73 36.312H224.13V38.784H226.29V44.664C226.29 46.848 227.634 48.144 229.794 48.144C230.802 48.144 231.33 47.952 231.498 47.88V45.576C231.378 45.6 230.922 45.672 230.538 45.672C229.506 45.672 229.05 45.24 229.05 44.208V38.784H231.474V36.312H229.05V32.736Z" fill="#00181C"/>
</svg>
